# xmcd CD database file
#
# Track frame offsets:
#	150
#	16346
#	26022
#	35474
#	49424
#	63011
#	77708
#	90459
#	100635
#	116157
#	128656
#	138428
#	152881
#	160399
#	173570
#	189468
#	200091
#	212797
#	229086
#	243780
#	256942
#	267057
#	277566
#	293093
#	307425
#
# Disc length: 4216 seconds
#
# Revision: 0
# Processed by: cddbd v1.4PL0 Copyright (c) Steve Scherf et al.
# Submitted via: CDex 1.40Release
#
DISCID=56107619
DTITLE=Artiste variés - 25 Super Country Hits Vol.3
DYEAR=1900
DGENRE=Country
TTITLE0=Quand j'aime une fois
TTITLE1=Le grand père du bord de ma mère
TTITLE2=Natif de la cote nord
TTITLE3=Chéri répond moi
TTITLE4=Le grand texas
TTITLE5=L'oiseau blanc
TTITLE6=As-tu trouvé
TTITLE7=L'écho répond
TTITLE8=Le toit de ma maison
TTITLE9=Au bar country
TTITLE10=La carte postal
TTITLE11=Pècher aux iles de la madelaine
TTITLE12=La radio
TTITLE13=A ma mère
TTITLE14=Si un enfant savait
TTITLE15=Jambalaya
TTITLE16=Un reve de la louisiane
TTITLE17=Amour d'une nuit
TTITLE18=Dans un bar du nouveau Brunswick
TTITLE19=Un gars de mon carmel
TTITLE20=Un reve fantastique
TTITLE21=L'adieu du soldat
TTITLE22=Les portes du pénitencier
TTITLE23=J'parle cajun
TTITLE24=La chanson de la mendiante
EXTD=ID3G: 2
EXTT0=
EXTT1=
EXTT2=
EXTT3=
EXTT4=
EXTT5=
EXTT6=
EXTT7=
EXTT8=
EXTT9=
EXTT10=
EXTT11=
EXTT12=
EXTT13=
EXTT14=
EXTT15=
EXTT16=
EXTT17=
EXTT18=
EXTT19=
EXTT20=
EXTT21=
EXTT22=
EXTT23=
EXTT24=
PLAYORDER=
